Projeto Thomaz Farkas 7 - Thomaz Farkas

Project Thomaz Farkas is a collection of 39 documentaries produced by Thomas Farkas  in the 1960s and 1970s, featuring various cultural events of Brazil linked to the specific reality of each region. The documentaries were organized in a box containing seven discs, and include a short interview with the participation of renowned photographer, producer and documentary filmmaker, exposing a broad universe of Brazilian culture.

The Disc 7 contains the following documentaries:

Hermeto, Campeão (1981)
Paraiso, Juarez (1971)
Pixinguinha e a Velha Guarda do Samba (1954-2006)
Todomundo (1980)

and an interview with Thomaz farkas by Walter Lima Jr

Walter Lima Jr - Entrevista com Thomaz Farkas

All films have Portuguese audio, and no subtitles. There's a 300 dpi scan of the DVD cover included.

    General
      Complete name : Projeto Thomaz Farkas - Thomaz Farkas.avi
      Format : AVI
      Format/Info : Audio Video Interleave
      File size : 1.51 GiB
      Duration : 1h 50mn
      Overall bit rate : 1 957 Kbps
      Writing application : FairUse Wizard - http://fairusewizard.com
      Writing library : VirtualDub build 32593/release
   Video #0
      ID : 0
      Format : MPEG-4 Visual
      Format profile : AdvancedSimple@L5
      Format settings, BVOP : Yes
      Format settings, QPel : No
      Format settings, GMC : No warppoints
      Format settings, Matrix : Default (MPEG)
      Muxing mode : Packed bitstream
      Codec ID : XVID
      Codec ID/Hint : XviD
      Duration : 1h 50mn
      Bit rate : 1 723 Kbps
      Width : 640 pixels
      Height : 464 pixels
      Display aspect ratio : 1.379
      Frame rate : 23.976 fps
      Resolution : 24 bits
      Colorimetry : 4:2:0
      Scan type : Progressive
      Bits/(Pixel*Frame) : 0.242
      Stream size : 1.33 GiB (88%)
      Writing library : XviD 1.2.0.dev47 (UTC 2006-11-01)
   Audio #1
      ID : 1
      Format : AC-3
      Format/Info : Audio Coding 3
      Codec ID : 2000
      Duration : 1h 50mn
      Bit rate mode : Constant
      Bit rate : 224 Kbps
      Channel(s) : 2 channels
      Channel positions : L R
      Sampling rate : 48.0 KHz
      Stream size : 177 MiB (11%)
      Alignment : Split accross interleaves
      Interleave, duration : 42 ms (1.00 video frame)
      Interleave, preload duration : 500 ms

All films were ripped individually. The specs refer to the films assembled together.
